<svg xmlns="http://www.w3.org/2000/svg" xml:space="preserve" id="Layer_1" x="0" y="0" version="1.1" viewBox="0 0 615 210"><path d="M185 159V68c-19 4-10-10-10-23 28 0 60-5 92 4 18 9 23 41 4 51 14 9 32 41 0 54-27 9-59 5-86 5zm27-18h41c14-5 9-28-5-28-31 0-41-9-36 28zm0-73c0 27-5 27 23 22 18 5 27-13 14-23h-37zm-46 91h-27v-46a18 18 0 0 0-32-14c-9 19 0 37-5 60H80v-50c-5-28-37-19-37 4v46H16V90c-14 5-9-9-9-18 13 0 36-9 32 14 13-19 45-23 59 0 18-23 64-19 68 13v60z" fill="#dcd3c7"/><path d="M390 159c-9 0-23 4-23-9-68 50-105-78-22-78 8 0 16 3 22 9-4-13 14-9 23-9v87zm-68-41c0 36 50 27 45-9-4-28-45-23-45 9zm223 4c0 28 14 41-23 37V40h23c5 14-9 73 14 59l23-27c9 0 27-5 27 5l-27 36c9 14 27 37 27 46h-27c-14-14-14-41-37-37zm-41 37h-27v-55c-5-23-41-14-37 14v41c-41 18-22-41-27-69-14 5-9-9-9-18 18 0 32-5 32 14 14-18 40-20 58-6l1 1c18 18 5 55 9 78z" fill="#dcd3c7"/></svg>