<svg xmlns="http://www.w3.org/2000/svg" xml:space="preserve" viewBox="0 0 615 210">
  <path fill="#202124" d="M262 6h28v36l6-2c16-4 30-4 44 4 8 5 14 12 18 21 5 13 6 27 3 40-4 18-17 28-35 32-16 4-33 3-49-1l-12-3c-2 0-3-1-3-3V6zm28 84v22c0 2 1 3 4 4l18 1c9 1 18-5 20-14 3-10 2-21-2-31-1-3-3-6-6-8-10-5-22-6-31 0-2 1-3 2-3 4v22zm91-84h28v66c0 3 1 4 4 4 16 2 28-7 31-24l2-12h26c1 10-1 19-4 28-4 8-11 15-20 20l25 40 5 9h-27c-2 1-4-1-5-3l-20-33c-1-3-2-4-5-3h-9c-3 0-4 2-4 4v36h-28l1-132zM240 90v39c0 2-1 3-4 4l-37 7c-11 1-21-1-31-5-14-5-24-16-26-29-4-15-3-30 4-44 6-15 21-24 38-24s34 2 50 8c5 2 5 2 5 8v37l1-1zm-28-1h-1V71c-1-8-2-9-11-11h-4c-13-2-23 4-26 15-3 9-3 19 0 28 1 6 6 11 13 13 8 2 17 2 25 0 2 0 4-2 4-4h-1V89h1zm373 2v39c0 2-1 3-4 4-11 2-21 5-32 6-16 2-32-1-46-9-10-7-16-17-17-29-2-11-1-23 3-34 5-17 20-28 38-30 18-1 36 2 53 9 3 0 5 3 5 5v39zm-28-1V68c1-3-1-5-3-5-7-3-14-4-21-3-8 1-14 6-17 13-4 9-4 20-1 30 3 9 12 16 22 15l17-2c3 0 3-1 3-3V90zm-191 61 4 19-2 3a197 197 0 0 1-213 11l-18-11-2-3 4-19c76 41 151 41 227 0zM84 115h43v23H41l22-37 23-37H45V39h82l-4 8-37 64-2 4zM88 2c7-1 14 5 15 13v2c0 7-6 13-14 13h-1c-8 0-16-6-16-14S78 2 86 2h2z"/>
</svg>
