<?xml version="1.0" encoding="utf-8"?><!-- Generator: Adobe Illustrator 25.0.0, SVG Export Plug-In . SVG Version: 6.00 Build 0)  --><svg xmlns="http://www.w3.org/2000/svg" xmlns:xlink="http://www.w3.org/1999/xlink" version="1.1" id="Layer_1" x="0px" y="0px" viewBox="0 0 615 209.6" style="enable-background:new 0 0 615 209.6;" xml:space="preserve"><path d="M97.3,92.7c0-24-16-43.9-39.9-43.9l-47.9-4v111.7l51.9-4c14.7-3.2,26.8-13.7,31.9-27.9  C97,114.4,98.4,103.5,97.3,92.7z M65.4,116.5c-1.9,9.5-10.3,16.2-19.9,16h-8V72.6c15.9-3.9,27.9,0,31.9,16  C70.9,98.1,69.5,107.8,65.4,116.5z" fill="#dcd3c7"/><path d="M308.6,108.7c0-16-7.9-31.9-23.9-35.9c-6.5-1.2-13.3-1.2-19.9,0c-12.4,0.6-23.3,8.4-27.9,19.9  c-2.8,6.2-4.1,13-4,19.9c0,24,12,43.9,39.9,43.9c16,0,31.9-8,35.8-23.9C310,124.7,310,116.6,308.6,108.7z M280.9,128.6  c-0.9,1.4-2.1,2.5-3.4,3.4c-5.5,3.6-12.9,2.1-16.6-3.4v-16v-11.9c0.9-1.4,2.1-2.5,3.4-3.4c5.5-3.6,12.9-2.1,16.6,3.4  C283.9,109.7,283.9,119.5,280.9,128.6z" fill="#dcd3c7"/><path d="M536.2,72.7c-5.3-0.7-10.7-0.7-16,0c-14.9-0.5-28.2,9.4-31.9,23.9c-1.6,9.2-1.6,18.7,0,27.9  c2.2,13,11.4,23.7,23.9,27.9c10.1,4,21.1,5.4,31.9,4c5.4-1,10.8-2.3,16-4l-4-19.9l-23.9,4.1c-8.9,0-16-7.2-16-16h47.9v-12  c0.1-0.2,0.1-0.3,0.1-0.5C566.2,90.6,553.7,74.7,536.2,72.7z M516.1,104.6c0-6.6,5.4-12,12-12c4,0,12,4,12,12H516.1z" fill="#dcd3c7"/><path d="M432.4,96.6h-8V72.7h8v-16c0-2.2,1.8-4,4-4l23.9-4v23.9h16v23.9h-16v31.9c0,4,4,8,8,4h12v16  c0.7,1.2,0.7,2.8,0,4c-9.9,5-21.1,6.4-31.9,4c-12-4-16-12-16-27.9V96.6z" fill="#dcd3c7"/><path d="M368.6,72.7v-20l27.9-4v23.9h16v23.9h-16v31.9c0,4,4,8,8,4c2.7,0.2,5.3,0.2,8,0h4v16c0.7,1.2,0.7,2.8,0,4  c-8.7,4.1-18.4,5.5-27.9,4c-12-4-19.9-12-19.9-23.9V96.6l-8-4V72.7H368.6z" fill="#dcd3c7"/><polygon points="193,44.8 221,44.8 221,156.5 197,156.5 193,152.5 " fill="#dcd3c7"/><rect x="320.7" y="72.7" width="27.9" height="83.8" fill="#dcd3c7"/><circle cx="588" cy="140.6" r="16" fill="#dcd3c7"/><rect x="320.7" y="44.8" width="27.9" height="19.9" fill="#dcd3c7"/><path d="M155.8,72.3c-5.3-0.7-10.7-0.7-16,0c-14.9-0.5-28.2,9.4-31.9,23.9c-1.6,9.2-1.6,18.7,0,27.9  c2.2,13,11.4,23.7,23.9,27.9c10.1,4,21.1,5.4,31.9,4c5.4-1,10.8-2.3,16-4l-4-19.9l-23.9,4.1c-8.9,0-16-7.2-16-16h47.9v-12  c0.1-0.2,0.1-0.3,0.1-0.5C185.8,90.2,173.3,74.3,155.8,72.3z M135.7,104.2c0-6.6,5.4-12,12-12c4,0,12,4,12,12H135.7z" fill="#dcd3c7"/></svg>