<svg xmlns="http://www.w3.org/2000/svg" xml:space="preserve" id="Layer_1" x="0" y="0" version="1.1" viewBox="0 0 397 210"><path d="M120 3c10 0 20 3 29 9 11 6 22 15 32 22 9 6 19 12 29 15 13 4 27 3 38-3 10-5 20-9 31-12 7-3 15-2 22 0 6 3 10 8 11 13l1 1v3l-3-1c-6-6-14-8-22-6-9 2-17 5-25 9-9 4-18 8-28 10-14 4-30 1-43-7-15-8-29-18-42-28-6-5-13-9-21-11-9-3-18-2-26 3l-7 5-4 5c-5 2-9 7-11 12l-1 7c0 5-3 9-7 12l-10 7c-2 2-2 3-1 4l2 2c3 2 3 5 1 8-1 2-1 3 1 4s2 2 0 3c-2 2-2 3 0 5v4l-2 4c0 2 1 4 3 5h8c8-1 16-1 24 1 11 1 20 11 20 22v3l-2-2c-5-10-15-16-26-16l-23 1h-6c-5 0-9-4-9-9v-2l1-3c1-2 0-4-1-6-1-1-1-3 1-5s2-2 0-3c-2-2-2-4 0-6s2-3 0-5-3-3-3-5c-1-2-1-4 1-5l13-9c3-2 5-5 5-9 1-6 3-13 7-18l9-7 3-2c1-6 6-11 11-14 6-3 13-5 20-5zM84 190l7-19 7-23 2-2h9c2 0 2 0 1 1l-19 59-2 2h-9l-3-2-14-40-1-2-5 13-11 29-2 2h-9l-2-2-12-38-6-19c-1-3-1-3 1-3h8c2 0 3 0 3 2l12 38 2 3 7-20 5-16c2-4 3-6 9-6 7 0 7 0 10 7l12 36z" fill="#dcd3c7"/><path d="M128 32c6 0 13 2 18 6l22 17c11 9 24 16 38 22 12 4 25 4 38 0l30-12c10-5 21-8 32-9 11 0 21 7 23 18v4l-3-2c-6-6-14-9-22-7-12 2-23 6-34 12-11 5-23 9-36 12-14 3-29 0-42-7-10-6-20-13-28-22l-21-18c-5-4-11-7-18-8l-8 1h-3l1-3c4-3 8-4 13-4z" fill="#dcd3c7"/><path d="M142 66c6 1 12 4 17 8 7 6 13 13 21 18a65 65 0 0 0 64 12l35-14c9-4 18-7 27-8 8-2 16 0 22 4s9 10 9 17v2l-2-2c-5-7-13-11-22-9-11 1-21 4-31 9-12 6-25 11-38 15-12 3-25 4-38 1-9-2-17-6-24-12-10-8-19-17-28-27-4-5-9-9-16-11l-1-2 1-1h4zm11 142h-22a13 13 0 0 1-14-14v-34a12 12 0 0 1 13-13h47c2 0 2 0 2 2l-1 6c-1 2-3 3-5 3h-38c-4 0-5 1-5 5v6c0 2 0 2 2 2h30c2 0 3 0 3 3v6l-2 2h-30c-3 0-3 0-3 3v8c0 3 0 4 4 4h38a8 8 0 0 1 7 10l-1 1h-25zm219 0a7 7 0 0 1-10-6l-1-1c0-5-3-5-7-5h-33l-3 2-5 9-1 1h-12l-1-2 16-31 9-21c2-5 7-8 12-7h8c3-1 7 1 9 5l16 34 9 19c1 3 1 3-2 3h-4zm-33-21h14c2 0 3 0 2-2l-12-25c-1-1-2-3-4-3s-4 1-5 3l-11 25c-1 1 0 2 1 2h15zm-152-15v-24c0-2 1-2 2-2h8c2 0 2 1 2 2v44c0 4 1 6 6 6h28c4 0 5 1 6 4v1c1 5 1 5-3 5h-37a11 11 0 0 1-12-12v-24zm86 36h-16c-6 0-11-4-11-10v-49c0-2 0-3 2-3h8l1 3v45c0 2 2 3 4 4h34c2 0 2 0 1 2l-3 6c-1 1-1 2-3 2h-17z" fill="#dcd3c7"/></svg>