<svg xmlns="http://www.w3.org/2000/svg" xml:space="preserve" id="Layer_1" x="0" y="0" version="1.1" viewBox="0 0 615 210">
  <style>
    .st0{fill:#202124}
  </style>
  <path d="M23 60v-7c1-8 7-14 15-14h3c2 0 3 0 4-2a18 18 0 0 1 29-10c3 2 5 5 6 9 1 3 2 4 5 3 7-1 14 3 16 10l2 9c0 2 1 3 2 3 12 2 14 13 12 22l-2 7v4c9 7 9 16 4 24l-8 10c-2 1-2 2-1 4 4 7 2 14-3 20s-14 10-21 14c-9 3-16 8-21 16-1 3-4 3-5 1-3-6-7-10-12-13l-20-10c-6-3-11-7-14-13-2-5-2-11 1-15 1-2 1-3-1-5-9-6-14-15-10-26l5-7c2-1 2-3 1-4v-1c-3-7-5-15 0-23 4-4 8-5 13-6zm40 116c5-9 13-14 21-18l16-10c4-3 6-8 5-13l-4-9 5-3 4-4c5-6 8-13 3-19l-7-7 1-1 4-11c3-10-4-18-13-16h-1V53c-1-4-3-7-7-8s-8-1-11 1l-6-12c-3-3-8-5-12-4-9 2-11 8-12 16l-4-1a12 12 0 0 0-16 12v8h-2a12 12 0 0 0-14 14c1 4 2 8 5 11 2 3 1 4-1 5-4 2-7 6-7 10 0 6 2 12 7 16l7 6c-3 3-5 7-4 11 0 5 4 10 9 13l19 11c6 3 11 8 15 14z" class="st0"/>
  <path d="M51 147c4-4 6-9 6-15 0-5-2-10-5-14v-2h2c4 3 5 1 7-2h3l2 2c1 2 2 2 3 1l5-2c-6 11-7 21 0 32H51zm24-64-3-5c-1-3-1-6 2-9l1-1 2-2 3-1h1l4 5c1 4-3 10-7 11l-3 2zM63 96l-5-5c-1-2-2-5-1-8v-2c1-3 5-4 7-3 4 1 5 4 5 6l-2 7-4 4v1zM45 65c4 0 7 3 9 7 1 4-1 8-3 11-4-2-8-3-9-7s0-8 3-11zm11 44c-4-1-8 0-9-5-3 0-2-4-2-6l3-6 4 1 5 5v9l-1 2zm6-37c-4-2-6-6-6-10l1-2c0-4 3-4 5-5l1-1c1 2 5 2 5 5v8l-2 2c-1 1-2 3-4 3zm22 21-1-5 1-3 1-2c2-4 6-6 10-4 2 0 3 4 3 6-1 3-4 5-6 7l-2 1h-6zm-6-1 3 5-1 5-5 6-3 1c-2 1-2 0-4-2-2-3 0-7 0-10l2-1h1c1-5 5-2 7-4zm-35-5-1 7-3-1c-4 1-6-2-9-3-2-2-3-10-1-11l6-1 5 5 3 4zm40 24c0-4 2-8 5-10 2-2 9-2 11 0v6l-6 5c-4 2-7 0-10 0zM31 99l5 1c2 1 4 3 5 6h1v5l-5 1c-3 0-6-1-8-3h-1c-3-2-1-5-2-7l2-2 3-1zm527-25h19c-1 9 2 16 4 25l5 17 1-1 7-29V63l-2-6h1l16 11 1 2-1 12-5 17-6 21-7 21-1 4-4 2h-10l-10-40-2 5-7 26-2 7c-1 2-3 2-5 2h-9c-1 0-2 0-2-2l-6-25-8-35c-1-4-2-8-5-11h24c-2 4-1 8 0 11l4 23 2 8 1 1 2-6 7-28c0-3 0-6-2-9zm-349 33c1-6 2-13 5-19 4-8 11-14 20-16 7-1 14 0 20 3 6 2 11 6 13 12 5 9 6 19 5 29 0 6-2 12-5 18-4 8-11 14-20 15-6 1-13 1-18-2-6-2-10-6-13-11-5-9-7-19-7-29zm43 4v-6c0-6-1-12-4-17-3-7-11-7-14-1l-4 9a84 84 0 0 0 3 37c3 6 9 7 13 3l4-6c2-6 3-13 2-19zm151-1c0 7-1 14-4 20-3 10-11 17-22 19-8 2-17 0-24-5-5-4-8-10-10-16-3-8-3-16-3-23 1-9 4-17 9-24 4-4 9-7 15-9 7-1 14 0 20 2 7 3 13 8 15 16 3 6 4 13 4 20zm-19 0-1-13-4-10c-2-3-4-4-7-5-3 0-6 2-7 4-3 5-5 10-5 15v22l5 12a7 7 0 0 0 12 1l4-7c2-6 3-12 3-19zm71 1c0-7 2-15 5-22 3-9 11-15 20-17 8-1 16 0 23 4 6 3 10 8 12 14 4 11 4 22 2 33-1 6-4 12-8 17s-9 8-16 9c-6 2-13 1-19-2s-11-7-14-14-5-14-5-22zm44-3-1-11c-1-5-2-9-5-12s-7-4-10-1l-4 4c-2 5-4 11-4 17v14c0 5 2 10 4 14s7 6 11 4h1l4-6c3-6 4-13 4-23z" class="st0"/>
  <path d="m340 74-6 6-9 13-5 6v2l14 35 6 11 1 1h-16c-4 0-7-2-8-6l-11-26-1 1-3 5-1 4v14c-1 2 0 4 2 6v1h-24l2-3 1-4V82c0-3 0-5-2-6v-2h23v1c-2 2-3 6-3 9v21l2-1 15-22 1-7 22-1zm-139 2-5-4c-3-4-7-6-12-7-3-1-6 1-9 3-2 3-2 7-1 10l8 11 15 16c5 6 7 13 6 21-1 12-10 21-21 23-7 2-15 1-22-2-3-1-6-3-6-7l-2-13v-3l2 1 11 10c4 3 9 4 13 2 5-2 7-8 5-13-1-3-3-7-6-9l-14-15c-6-6-9-14-9-22 1-10 7-19 17-22 8-3 18-2 26 1 1 0 3 1 3 3l1 16zm212 51-5 3c1-4 0-8 2-12l2-2 1-3V86c0-4 1-8-3-12h24l-2 2-1 7v21l16-15v8c0 5-2 9-5 11l-11 9v20l23-3-3 11c0 2-2 3-4 3h-37l1-2 2-6v-13zm90-76-3 11-3 2h-18c-1-6-2-4 3-6l19-7h2z" class="st0"/>
</svg>
