<svg xmlns="http://www.w3.org/2000/svg" xml:space="preserve" viewBox="0 0 615 210">
  <path fill="#202124" d="m576 59 34 85-8 1h-10c-5-1-9-4-9-9l-3-8h-29c-3-1-4 1-5 3l-1 5c-2 7-6 9-11 9h-26c-5 0-9-3-12-8l-15-16-12-15v28l-1 6c-1 3-3 5-6 5h-17V59h23v37h1l6-7 19-25c2-4 7-6 11-5h20l-35 41 31 34 4-11 6-14 6-14 9-23 4-11 2-2h24zm-12 18h-1l-10 34h21l-10-34zm-302 67h-19c-4 0-7-2-8-6l-3-9-1-1h-32l-4 12c-1 2-4 4-6 4l-8 1h-17c-7 1-14-3-18-9l-11-13-14-16-1-1v30c0 6-3 9-9 9H97V59h23v37l16-20 13-17 2-1h25l1 1-35 41 30 34 4-9 6-14 6-15 8-21 7-15 1-2h23l1 2 6 14 5 13 8 19 8 20 6 15 1 3zm-58-34h23l-12-33-11 33zm82-17 1 6v36c0 3 0 7-4 9l-3 1h-14V59h18l3 1 17 24 17 27 2 2V59h21v86h-20c-2-1-4-2-6-5l-21-31-10-15-1-1zM82 58l-1 11c0 3-2 5-5 5l-5 1H40a8 8 0 1 0 0 16h19c6 0 12 2 18 5 5 3 8 9 10 14 1 6 1 12-1 18-2 7-8 13-15 15-4 2-9 2-13 2H11c0-5-1-9 1-13 1-3 3-4 6-4l39-1c5 0 8-4 8-9 0-3-2-5-4-7-4-1-8-2-13-1-7 1-15 0-23-2-8-4-14-12-15-21-1-6 1-13 4-18 3-4 7-7 12-8 6-3 13-2 20-2l14-1h22zm276 87v-9c0-6 3-9 10-9h34c5 0 9-3 10-8 0-3-2-6-5-8-4-1-8-2-13-1l-19-1c-8-2-14-7-17-15-3-9-3-22 6-29l10-5 15-1 18-1h21v9c0 4-3 7-7 7h-34c-4 0-8 4-9 8s4 9 9 9h22c11 1 22 7 25 20 2 8 0 16-4 23-3 4-7 7-11 9l-15 2h-46z"/>
</svg>
