<svg xmlns="http://www.w3.org/2000/svg" xml:space="preserve" id="Layer_1" x="0" y="0" version="1.1" viewBox="0 0 490 210">
  <style>
    .st0{fill:#202124}
  </style>
  <path d="M73 29c31 4 22 12 57 5 7-5 18-29 28-20 11 12 8 29 14 42 10 9 9 26 22 32 7 5-8 13-6 21 0 28-12 55-33 73C73 255-63 141 48 76c3-3 15-1 14-6-6-15-15-45 10-41h1zm55 12c-25-1-47 15-55 38-9 18 6 36-1 52-2 5 17 1 9 16 3 10 39-2 49-4 9-1 19-13 27-10 0 6-11 7-15 11-2 7 17 12 23 9 20-9 15-35 20-53 1-3 7-6 2-10-12-6-12-39-24-19-2-17 6-35-8-52-13-1-22 23-25 33-7 9-4-7-2-11zM13 132c0 67 95 87 138 46 3-5 23-19 12-19-15 4-23-13-37-9-33 12-70 5-97-17-4-15 30 19 35 11-5-9 5-16 5-25-5-12-6-26-2-38 0-2 0-3-2-2-28 1-50 26-52 53zm84-90c-33-15-45-7-29 27 3 4 6-7 9-9 5-8 13-13 20-18zm-27 94c-7 0-5 10 0 10 2 0 5-2 5-5s-2-5-5-5zm204-32c5-5 6-23 13-22 2 1 7 0 6 4-6 16-9 33-16 48-11 8-10-20-12-26-4-12-23 44-31 23 4-16 5-35 10-50 16-5 2 17 6 25 18-17 14-44 25-3l-1 1zm116-4c4-8 2-22 12-25 7 0 0 11 0 15-4 12-4 35-13 43-11 0-8-19-10-27-8-14-5 29-13 29-3 2-8 1-7-3 6-24 11-89 31-32zm43 103 11-44c7-23 59-9 20 21 7 5 4 15 7 23 1 3-1 5-5 6-14 0-1-25-14-27-10 5 0 26-19 21zm21-47c-6 24 5 20 14 4 1-6-10-3-15-4h1zm-214 45c-18 3-1-25 0-34 4-17 2-25 23-23 24 4 3 66-24 57h1zm15-49c-7 0-4 10-6 15-1 8-6 17-4 24 15 1 14-24 18-34 2-5-5-4-8-6v1zm69 37c1-6 8-50 17-35-1 13-11 33-2 44 10-11 12-31 17-46 25-19 1 44-6 49-11 12-30 4-26-12zM278 26c27-25 41-21 7 6 1 10 9 19 12 30-3 1-8 8-11 5-5-9-7-19-12-27-3 6-4 13-6 20 0 10-15 9-9-1 3-8 5-49 13-48 11-2 2 11 6 15zm-43 139c-1 18-12 42-34 40-35-15 29-95 34-40zm-8 4c0-23-21-11-24 4-5 9 1 32 12 18 7-6 11-13 12-22zm62-50c1-17 19-55 39-35 15 29-35 80-40 35h1zm9-5c2 31 31-7 23-21-9-17-24 11-23 21zm67-53c10-107 81-36 21-16-17-2-1 21-21 16zm33-42c2-10-14-7-14 0 0 5-9 22 1 18 6-4 11-11 13-18z" class="st0"/>
  <path d="M231 45c-2 24 20 11 15-5-1-3-6-2-9-3-12-2-11-17-1-22 8-4 25-8 27 4a3 3 0 0 1-4 3c-7-8-32 1-13 8 38 8-21 64-26 24 0-8 4-7 11-9zm133-15c-4 20-20-2-21 18 0 5 10 2 13 3 6-1 8 4 5 8-8 5-18 2-27 3-8 3 7-41 7-47 3-14 17-7 27-9 6 0 1 7 0 10-5 6-17-2-21 4-3 13 10 7 17 10zm54 160c4 0 12-3 12 3 2 10-14 6-20 7-3-1-11 2-11-3l5-22c3-9 3-24 10-29 6 1 26-6 25 3-2 9-1 8-9 8-5 1-15-3-15 5 0 4-1 4 3 5 3 1 16-2 13 4-2 7-8 9-15 6-4-2-3 7-4 10s4 3 6 3zm11-61c-9 3-19 3-28 2-5-4 2-17 2-23 8-22-1-34 28-31 6 0 6 0 5 6 0 13-18 0-21 8s7 6 12 8c5 0 0 11-5 10-10-2-10-2-11 9 2 9 18-6 18 11zm-114 41c8-2 7 8 1 10-4 1-10-2-12 3-3 5-2 25-10 22-10-1 8-44 8-53 1-6 3-5 7-5 6 2 16-2 20 3 0 5-2 7-7 8s-12-2-13 5c-3 6 0 7 6 7zm2-115c11-1 15-1 7 10-3 2-31 5-26-2 5-12 5-53 22-51 6 7-19 47-3 43zm128-43c-4 11-17 17-18 30-2 4-1 19-6 20-19 6 1-20-5-30l-3-21c14-8 7 7 12 12 8-2 9-20 20-11zM340 137c-4-2-16 2-14-5l13-45c21-20 2 26 1 34-2 7 9 3 13 4 5 0 2 6 0 9-3 5-9 1-13 3zm30 64c6-13 10-27 12-41 1-7-8-2-12-4 8-12 25-9 37-10 1 9-7 10-13 10-7 13-8 30-12 44-2 7-7 2-12 1zM153 49c-8-31 11-4 3 10-5 5-9-5-15-5-7-2-3-7 2-5 4 1 10 8 10 0zm-42 74c-5 1-10-6-3-6 8 2 16-1 19-8 1-2 2-5 4-4 5 10-10 19-20 19v-1z" class="st0"/>
</svg>
