<svg xmlns="http://www.w3.org/2000/svg" xml:space="preserve" viewBox="0 0 615 210"><path fill="#202124" d="m134 130-15 4c-8 0-16-3-22-8-8-5-13-15-11-26 2-13 12-24 26-25 7-2 15-2 22 0v11h-4c-6-4-14-6-22-4-6 3-10 8-11 15-3 7-1 16 4 22 3 5 9 8 15 8l11-4v-15l-4-4h15a52 52 0 0 0 3 34v3c-6 4-14 5-22 4-13-2-26-7-37-15-9-6-19-10-29-11-9-1-18 0-26 4l-4 3c3 6 1 12-4 15s-11 2-14-3c-1-4 0-9 3-11 5-6 11-10 19-12 14-1 28 1 40 8l12 4c11 8 26 12 40 11 6-1 11-4 15-8zm458-15V75h11v7l-4 7v34l4 7h-11l-4-7-22-30h-4l4 37h-15 4V82l-7-7h14l4 7 26 33zm-380-11 7 15 11 11h-4c-3 1-6-1-7-4l-19-18v-4l4 26h-15V75h22c7 1 12 8 12 15 0 6-3 11-8 14h-3zm-12 0c8-3 15-7 12-15 0-6-5-11-12-11v26zm311 26h-15l-8-15h-18l-7 8v7h-15l4-4 14-26 15-25 8 11 14 33 8 11zm-30-40-7 18h15l-8-18zm-77-4-11-4h-12c-5 2-9 6-11 11-3 6-4 12-3 19 1 10 11 16 21 15l1-1c5 0 10-3 14-7v11c-8 3-17 3-25 0-13-3-21-13-23-26 0-15 11-29 30-29h18v11h1zm-119 44 4-22c0-2-2-4-4-4l-11-22-7-7h15c0 2 1 5 3 7l8 11v4l4-8 3-7 4-7h11l-18 29v19l3 7h-15z"/></svg>