<svg xmlns="http://www.w3.org/2000/svg" xmlns:xlink="http://www.w3.org/1999/xlink" xml:space="preserve" id="Layer_1" x="0" y="0" version="1.1" viewBox="0 0 615 210">
  <style>
    .st1{fill:#202124}
  </style>
  <g id="g2386">
    <defs>
      <path id="SVGID_1_" d="M100 87c0 9 5 17 15 17 9 0 14-6 14-15s-6-16-16-16c-8 0-13 6-13 14m84 30c0-7-7-10-14-14-9-4-18-8-18-19 0-12 12-18 23-18 6 0 12 1 17 4v10c-5-4-11-7-17-7-6 1-12 3-12 8 0 7 8 11 16 15s17 9 17 18c0 14-13 19-25 19-7 0-13-2-20-4v-10c7 4 15 6 21 6 5 0 12-1 12-8m22-2V58c0-9-1-13-3-16l14-3v54l19-17 7-7h16c-1 0-4 0-14 10l-18 16 21 23c7 9 13 11 16 11h2c-3 2-7 3-12 3-7 0-12-3-18-11l-19-23v17l1 15h-15c2-3 3-4 3-15M68 59c-4 7-6 17-6 25 0 13 2 24 7 36 9 20 25 31 47 31l15-2c4-1 7-4 7-9 0-2-1-5-4-6l-13-1-16-1c-8-1-12-7-12-12s3-9 9-12c-8-3-14-10-14-19 0-13 10-23 26-23l11 2 9 2 12-2v9l-12-1c4 3 6 9 6 13 0 12-9 21-25 21h-5l-4 2c-2 2-3 3-3 5 0 3 2 5 8 5l14 1c14 1 21 6 21 16 0 11-9 19-31 19l-20-3c-5-1-9-4-14-7 19 32 51 59 89 59 19 0 34-7 49-18 35-26 80-84 80-130 0-34-25-49-56-54-11-2-21-2-33-2-47 0-119 8-142 56"/>
    </defs>
    <use xlink:href="#SVGID_1_" fill="#202124" overflow="visible"/>
    <clipPath id="SVGID_2_">
      <use xlink:href="#SVGID_1_" overflow="visible"/>
    </clipPath>
    <path id="rect2409" fill="#202124" d="M62 3h237v204H62z" clip-path="url(#SVGID_2_)"/>
  </g>
  <path id="path2411" d="M474 178h-19c1-5 3-11 10-11s9 5 9 11m8 6v-3c0-11-4-20-17-20-11 0-18 8-18 20 0 13 6 22 20 22 7 0 9-2 12-3v-7c-2 1-7 4-12 4-7 0-12-6-12-13h27z" class="st1"/>
  <path id="path2413" d="M440 202v-24c0-11-4-17-15-17-5 0-10 2-12 7h-1v-6h-7v40h8v-18c0-10 3-18 11-17 7 0 9 5 9 14v21h7z" class="st1"/>
  <path id="path2415" d="M395 149c0-3-2-5-4-5s-4 2-4 4c0 3 2 5 4 5s4-2 4-4m0 13h-8v40h8v-40z" class="st1"/>
  <path id="path2417" d="M380 202c-3-1-4-3-4-6v-50h-7v51c0 4 2 6 6 6l5-1" class="st1"/>
  <path id="polygon2419" d="m364 202-23-29 21-26h-9l-19 24v-24h-8v55h8v-27l20 27z" class="st1"/>
  <path id="path2421" d="M516 134v-23c0-11-4-18-14-18-6 0-10 3-13 7V79h-7v55h7v-18c0-10 3-17 12-17 6 0 8 5 8 15v20h7z" class="st1"/>
  <path id="path2423" d="M475 134v-6l-5 1c-4 0-6-2-6-7v-22h10v-6h-10V82l-8 3v9h-7v6h7v23c0 9 5 12 13 12l6-1" class="st1"/>
  <path id="path2425" d="M443 81c0-2-2-4-4-4s-4 2-4 4 2 4 4 4 4-2 4-4m0 13h-8v40h8V94z" class="st1"/>
  <path id="path2427" d="M425 134v-25c0-9-4-16-14-16-3 0-10 2-12 8-2-6-7-8-12-8-6 0-10 2-13 7v-6h-7v40h8v-20c0-8 3-15 10-15 6 0 7 6 7 11v24h8v-20c0-8 3-15 10-15 6 0 8 6 8 11v24h7z" class="st1"/>
  <path id="path2429" d="M361 119c0-11-10-14-18-18l-4-2c-2-2-4-4-4-7 0-6 6-7 11-7l11 2 1-6-12-3c-12 0-20 6-20 15 0 11 10 13 18 17 4 2 9 4 9 9 0 8-8 10-12 10-5 0-10-2-13-3l-1 7 12 2c12 0 22-4 22-16" class="st1"/>
  <path id="polygon2431" d="m470 68-13-21 12-19h-8l-8 14-8-14h-9l12 19-13 21h9l8-16 9 16z" class="st1"/>
  <path id="path2433" d="M391 68c-3-1-4-3-4-6V12h-7v51c0 4 1 6 6 6l5-1" class="st1"/>
  <path id="path2435" d="M371 67V43h-8v18l-9 1c-12 0-21-9-21-22 0-12 8-21 21-21 7 0 12 2 15 4l1-8c-5-2-8-3-16-3-17 0-29 11-29 28 0 18 11 29 29 29l17-2" class="st1"/>
  <path id="path2437" d="M511 48c0-12-7-21-19-21s-19 9-19 21 7 21 19 21 19-9 19-21m-8 0c0 7-2 15-11 15s-11-8-11-15c0-8 3-15 11-15s11 7 11 15" class="st1"/>
  <path id="path2439" d="M429 68V43c0-11-4-16-16-16-5 0-9 1-13 4l1 6c3-2 7-4 11-4 7 0 9 3 9 10h-7c-8 0-18 3-18 13 0 9 6 13 14 13 7 0 10-4 12-6v5h7zm-8-15c0 5-3 10-10 10-4 0-7-2-7-7 0-7 9-7 13-7h4v4z" class="st1"/>
</svg>
