<svg xmlns="http://www.w3.org/2000/svg" xml:space="preserve" baseProfile="tiny" overflow="visible" version="1.2" viewBox="0 0 1357 379"><path fill="#d7cfc5" d="m137 181 5-4-14 10zM477 321l-6 3-2-3h-6v36h8v-20q0-7 6-9h8v-7zM289 73q19-16 36-36a125 125 0 0 0-197 37l42 32c15-48 82-69 119-33M329 339l-1-11c-6-11-24-11-29 0q2 2 5 3 3-4 10-4 8 1 8 8l-11-1q-9 0-13 8c-3 7 3 15 10 17q8 0 14-4l2 2h5zm-17 14q-6 0-7-6 0-6 6-7t11 3q-1 8-10 10M279 307h-19v50h7v-19c7-1 13 1 19-3q5-3 7-9 1-6-2-12-5-6-12-7m1 23-13 1v-17c6 1 11-1 16 2 5 4 3 12-3 14M430 324c-11 8-10 27 3 33 8 5 20 1 24-8l-6-3q-2 5-8 6c-7 1-14-4-13-11h28q1-8-5-15c-5-7-16-8-23-2m0 11q3-7 10-8 9 0 10 8zM404 320q-6 0-11 4v-2l-7-1v36h7v-20q0-7 6-9c4-2 11 0 11 5l1 24h7v-24q-2-12-14-13M375 352l-3-4v-20h9v-7h-9v-9l-7-1v10h-6l-1 6 7 1v23q1 4 5 7h10l1-6zM350 321q-4 1-8 4l-1-2-6-1v36h7v-22q1-3 4-6 4-2 9-2v-7z"/><path fill="#d7cfc5" d="m128 187 14-10 25-19c7-9-6-11 3-51v-1 1l-42-33c-18 35-18 78 0 113M360 108H242v49h65q-4 24-23 38l41 31c32-28 43-77 35-118M170 107l-42-33z"/><path fill="#d7cfc5" d="M284 195c-41 27-99 6-114-40l-3 3-25 19-5 4-9 6c33 73 139 95 197 40zM128 187"/><path fill="#d7cfc5" d="m167 158-25 19q21-14 25-19M284 195l41 31zM38 331v6h18c0 8-8 15-16 15-9 1-19-6-20-15q-2-9 3-17 9-10 21-6l8 5 5-5q-3-4-8-6-14-5-27 3a27 27 0 0 0-1 42c10 8 27 8 36-2q7-8 6-21zM192 308v49h7v-50zM97 323q-8-4-16-2-9 2-13 13-3 12 5 20 5 5 12 5 12 0 17-9c5-8 3-21-5-27m0 21c-2 8-12 11-18 6q-6-5-4-12 0-8 7-10 7-3 12 2 5 7 3 14M136 323q-7-4-14-2-12 4-13 15-1 9 3 15 5 8 15 8t15-8c7-9 4-23-6-28m-2 27q-7 5-13 0c-8-5-7-20 2-22q7-3 12 2 8 11-1 20M185 321h-6l-1 3q-6-3-11-4c-8-1-15 6-17 13v1q-3 10 3 18 5 6 12 7 7 0 13-4 0 3-2 8-4 7-13 3l-6-5q-3 0-6 2 4 10 12 10 8 2 15-2 7-5 7-15zm-13 30q-7 4-12-2c-6-6-5-18 3-21h10c7 5 7 18-1 23M223 320q-7 0-13 5-5 7-5 15 0 10 7 16 7 5 16 3 8-3 11-10l-5-3q-4 4-8 6c-7 2-14-4-13-11h27q1-7-2-12-5-8-15-9m-10 15q1-5 5-7 6-2 11 1l3 6zM1004 227V74h-30l-51 93-51-93h-30v153h25V110l45 81h22l45-81v117zM1053 223q12 7 30 7 27 0 47-18l-13-16q-7 7-15 10-7 3-19 3-13 1-22-8-9-7-11-22h83v-7q0-18-7-32-6-14-18-22-11-8-27-8-17 0-29 8t-20 21-7 31 8 31c8 13 11 16 20 22m7-84q9-8 20-8 13 0 20 8 9 8 9 22h-59q2-13 10-22M1220 207l-7 1h-8q-10 1-15-5-4-6-4-18v-52h34v-20h-34V80h-24v33h-22v20h23l-1 54q0 43 39 43l19-3zM1320 113v15q-6-8-15-13-9-4-21-4-15 0-27 7-12 8-19 21-6 14-6 31 0 18 6 31 8 13 18 21c10 8 17 8 27 8q12 0 22-5 9-5 15-14v16h23V113zm0 75q-4 9-13 15c-9 6-12 6-19 6q-15 0-24-11-9-10-9-28t9-28 25-10q10 0 19 6 8 5 11 15h1zM638 143l-28 44c-12 17-18 18-25 18q-8 1-14-8l-22 15q10 19 36 20 21 1 40-25l26-44 8-13 2-4-13-19zM713 70q-16 0-31 14-9 8-18 20l12 17 2-4q16-26 33-26 18 1 30 20c11 18 17 43 17 65l22-1q0 24-8 38c-5 9-16 18-33 18v1c17 0 28-10 33-19q8-13 9-38 0-42-21-75-20-29-47-30M636 111l12 16 3-4 13-19q-11-14-20-21a51 51 0 0 0-34-13l-1 26c13 0 21 8 27 15"/><path fill="#d7cfc5" d="M758 176c0 15-4 29-19 29q-8 1-16-10-7-8-29-44l-6-10-12-20-15 25 1 3 22 36q12 21 25 34 15 14 30 12v-26c15 0 19-13 19-29"/><path fill="#d7cfc5" d="M772 213q8-15 8-38l-22 1c0 16-4 29-19 29v26c17 0 28-9 33-18M664 104l-13 19-3 4 13 19 15-26zM566 177q0 14 5 20-5-6-5-21c0-22 7-45 17-61q11-18 26-19-15 1-26 19l-22-14v1q19-30 49-32c-20 0-37 13-49 31q-20 33-21 74 1 22 9 37-8-15-8-36z"/><path fill="#d7cfc5" d="m566 177-25-1q0 21 8 36l22-15q-5-6-5-20M561 102l22 13q11-19 26-19V70q-29 2-48 32M1106 323q-8 1-11 6l-1-6h-6l1 10v26h6v-21l1-3q2-6 8-7 9 1 9 11v20h6v-21c0-13-8-15-13-15M1172 330v-7h-6l1 11v25h6v-22q2-8 9-8h2v-6h-2q-6 1-10 7M1144 323q-17 1-17 19 1 17 18 18l11-2-1-5-10 2q-10 0-12-13h25v-3c0-6-3-16-14-16m-11 15q1-9 10-11c8 0 9 7 9 11zM869 323q-17 1-17 19 1 17 18 18l12-2-2-5-9 2q-12 0-13-13h25l1-3c0-6-3-16-15-16m-10 15q0-9 9-11c8 0 9 7 9 11zM757 349v-26h-7v25q-1 5-9 6-8 0-8-11v-20h-6v21q2 18 12 16 9-1 12-7v6h6zM1072 315l-6 2v6h-5v5h5v20q0 6 3 9 2 3 7 3l5-1v-5h-4q-5 0-5-6v-20h10v-5h-10zM779 338q-7-2-7-6 0-5 6-5l8 2 1-4-9-2q-11 1-12 10 0 7 9 10 7 3 7 7 0 5-7 5-5 0-8-3l-2 5q4 3 10 3 13-1 13-11 0-7-9-11M903 338q-6-2-7-6 1-5 6-5l8 2 1-4-8-2q-12 1-13 10 0 7 10 10 6 3 6 7 0 5-7 5-5 0-8-3l-2 5q4 3 10 3 14-1 14-11-1-7-10-11M832 323q-9 1-12 6l-1-6h-5v36h6v-21l1-3q2-6 8-7 10 1 9 11v20h6v-21c0-13-7-15-12-15M797 323h6v36h-6zM800 309q-3 0-4 4 0 4 4 4 3 0 4-4-1-3-4-4M1028 351v-14q1-12-14-14-6 0-11 3l1 4 9-3c8 0 9 6 9 9q-21 0-22 14 0 9 11 10 8-1 11-5l1 4h6zm-6-4-1 2q-2 5-8 6-6 0-6-6c0-7 8-8 15-8zM1044 330v-7h-6l1 11v25h6v-22q2-8 9-8h2v-6h-2q-6 1-10 7M992 313q-4-4-14-4l-12 1v49h6v-20l5 1q10 0 16-6 3-4 3-11 0-6-4-10m-14 21h-6v-19l6-1q12 0 12 10-1 10-12 10M708 332q8-3 9-11 0-6-4-8-5-4-14-4l-12 1v49h10q12 0 17-4 4-4 4-10-1-10-10-13m-14-2v-16h5q11 0 11 8t-11 8zm5 25-5-1v-19h5q12 0 13 10-1 10-13 10M932 338q-6-2-6-6 0-5 6-5l7 2 1-4-8-2q-12 1-13 10 0 7 10 10 7 3 6 7 0 5-6 5t-9-3l-1 5q4 3 10 3 13-1 13-11 0-7-10-11"/></svg>