<svg xmlns="http://www.w3.org/2000/svg" xml:space="preserve" baseProfile="tiny" overflow="visible" version="1.2" viewBox="0 0 1357 379"><path fill="#d7cfc5" d="M1075 338c-25-6-7 13-5 25-30-33-52 3-82-25-14-9-32 25-44 9-8-37-30 3-38-15-6-7-9-20-17-23q-6 1-10-3c-8-10-19-4-29-11 4-7 1-18-8-14-9 7-25-17-26 3q1 4-2 7c-7 3-8-6-12-9-3-7-13-8-13-15-2-13-32-19-44-22-14-7 15-31 0-39-9-5-7-15-8-23-12-13-1-40-16-55-15-10 13-8 2-50 1-36 64-13 82-43 112-45 40 0 101 15 8 13 20-1 29-6 21 2 42 9 63 7 48-1 74-19 78 42 0 8 12 8 12 0 1-11-4-21-5-31 3-15-15-16-21-25-7-11-16 1-25 0l-44 2c-22 4-50-15-68-2-8-1-29 2-32-6 19 1 6-18-4-22-28-16-59 6-87 13-10 10-20 19-35 19-11 2-65 7-58 22q6 22 2 44c-9 6-7 16-5 26q10 7 12 18c3 9-2 20 3 28 9 10 2 26 14 35q3 2 1 6c-15 27-3 35 23 41 27 8 12 13 27 22 11 5 12 23 26 20 12 1 14-14 25-8-1 15 14 21 14 9 5 4 7 10 14 8 26-1 29 52 56 35 16-14 8 29 40 14 39-27 22 13 69-1 18-10 44 35 52 3 2-10-10-16-7-25m116-194v57h-17v-84h21l3 3 19 38 4 6v-47h16v84h-16l-3-4-24-49zm28 163h-17v-4l-1-37q0-5-4-7-6-2-11 2l-1 5v41h-17v-63h17l1 6q7-7 16-8 11 0 15 11l8-7q8-7 17-3 10 5 10 16l1 45-3 3h-15v-41q0-8-8-8-8 1-8 8z"/><path fill="#d7cfc5" d="M845 138q-2-17-17-20l-41-1v84h18v-30q7-2 10 3l20 27h20l-25-36q16-9 15-27m-21 12c-4 7-11 5-19 5v-23c7 1 14-2 19 4q4 6 0 14M1264 198l4-11q0-3 4-3h17q4 0 4 3l3 11 3 3h16v-2l-24-79q0-3-4-3h-13q-4 0-5 3l-10 33-14 48h17zm16-56zl7 27h-16zM1102 186l-5-1h-23l-4-2v-19h29v-16h-20c-9 0-9 0-9-9q-1-7 6-6h26v-16h-50v84h50zM968 185h-24v-21h28l1-2v-8q2-8-6-6h-23v-15l5-1h23l3-2v-13h-49v84h49v-8c0-9 2-7-7-8M908 141c6-8 5-15 5-24h-54v16h32l-3 5-28 43c-5 6-3 13-3 20h58v-16h-36zM1083 223h-49v84h18v-36h29v-16h-29v-16h28q4 1 3-3zM1303 245q-18-6-36 0v16l6-3q9-4 19-1 6 2 5 8l-19 3c-17 5-18 20-14 30q5 12 19 10 7-2 14-6l1 5h16l1-1-1-46q0-11-11-15m-6 32v11q0 7-8 7-7 1-9-4-3-7 4-11zM1043 133v-16h-62v12q0 4 3 4l14-1q6 0 5 6v63h18v-64q0-5 5-4zM1161 186h-21l-7-1v-68h-18v84h38c12 0 12 0 12-12q0-5-4-3M1141 252v-8h-17v63h17v-39q0-4 3-5l17-2v-18q-6 1-11 3zM1092 244l1 61 2 2h10q6 0 5-4v-59zM1092 220h18v14h-18zM375 144q18-32 10-68-3-26-22-44a77 77 0 0 0-53-19h-62v167h2q33 1 67-1 38-2 58-35m-97 9V39c15 0 29-2 44 2q26 6 33 29 7 25 0 51-10 29-40 32zM433 180V70l34 90 14-39v-3L443 17q-1-5-6-5h-33v168zM475 180h26q4 0 4-3l56-147 6-18h-20c-10 0-10 0-13 10l-1 3-45 118zM498 197l-28 1-3 2-6 16-44 117-12 32h27q3 0 4-3l57-153zM492 254v4l10 26 6 17h-31l-3 1-9 25h48q5-1 7 5l13 33h28l-55-148zM548 104q-3 7-4 16l-1 56 1 4h28V41l-1 2zM143 281zv28h7v-44c-10-1-8-1-12 6l-11 28-2-3-11-25c-2-7-2-7-10-6v44h7v-28l2 3 10 22q0 2 4 3l3-3 3-6zM229 209h-19v42l3 2h17q16-3 17-22-1-20-18-22m8 31c-4 8-12 6-19 6v-30q10-3 18 4c4 5 5 15 1 20M381 316q-5 3-10-1-4-5-8-2 3 11 15 10 13 0 14-12v-34l-8 3q-9-8-19 1c-5 5-6 15-2 22q4 4 9 5 7 0 13-1 3 5-4 9m-4-14q-8-1-9-9 0-9 8-10 9 1 9 9 0 10-8 10M389 223h-5q-1 6-7 3-4 0-6-4-2-6 3-7 7-3 10 4l6-2q-3-8-10-9-9-2-14 6t1 15l-1 1q-7 9-3 17 6 9 17 7 9-3 11-14v-7l4-1v-5l-1 1zm-12 25q-6 0-8-7 0-6 5-8l10-1v9q-2 6-7 7M83 325q-1-5-6-5c-5 0-4 3-5 5l-4 11-11 29c7 1 7 1 9-3 3-7 3-7 11-7h5q6-1 7 5c2 6 2 6 9 5l-1-4zm-12 23 7-18 6 18zM268 277q-15-2-19 11-4 15 9 21 15 4 20-7c-5-3-5-3-8 0-5 4-13 1-14-6h22q2-15-10-19m-12 13q2-7 8-7 7 0 8 7z"/><path fill="#d7cfc5" d="M244 278c-10-3-13 6-19 11l-1-24h-6v44h6c2-5-2-10 4-14l6 9q4 7 12 5l-13-19zM267 333q-11-1-15 9c5 1 5 1 8-2q4-2 7-1t5 5l-15 4q-6 2-6 9 1 7 8 8h12v-1l8 2-1-22q0-11-11-11m-5 27-3-4 3-4 8-2c3 7-3 12-8 10M342 333q-15 1-16 16 1 16 16 17 15-1 16-17-1-15-16-16m0 26q-8-1-9-10 1-9 9-10 8 1 9 10-1 9-9 10M179 333c-9-1-17 7-17 16s7 17 16 17q16-1 17-17-1-15-16-16m9 16q-1 10-9 10t-9-10c-1-10 3-9 9-10q8 1 9 10M266 221q-11 0-13 9l6 2q3-7 9-5l5 5-14 4q-7 2-7 10 2 7 9 8l11-2 7 2v-24q-2-9-13-9m-2 27q-4 0-4-4-1-2 3-4l8-2q1 11-7 10M337 254v-22q0-10-11-11-12-1-15 9 5 2 8-1t7-2q3 1 5 6l-8 1-6 2q-8 2-6 10 1 7 8 8l10-2zm-16-6-3-4 2-4 11-2q-1 6-3 8-3 3-7 2M177 308l7 2v-21q0-11-10-12-12-2-16 9l6 1q5-6 9-4l5 6-8 1-7 2q-6 3-5 10 1 6 8 8zm-9-12 8-2q2 12-8 10l-3-4zM379 333l-6 2-8-2v32h7v-17q1-5 4-8 7-4 9 6v19h8v-22q-2-12-14-10M350 309h5v-21c-1-11-10-15-19-9l-2 2 1-2-8-2v32h7v-17q0-8 8-8 6 0 6 8v17zM149 347l-6-2-3-3 3-3q5-2 8 4l6-1q-6-14-18-8-6 3-6 9t7 8l8 2 3 3-3 3q-4 3-10-4l-6 2q4 10 16 9 9-2 10-10 1-7-9-9M122 348l-9-3q-3-1-4-3l4-3 5 1q4 6 8 1c-1-8-12-10-18-7q-5 3-6 9 0 5 7 8l8 2 4 3-5 4q-5 1-8-5l-6 2q2 8 10 9 8 2 14-5 5-7-4-13M211 341q7-5 13 3l6-1q-5-12-18-10-11 3-12 16 0 14 13 17 12 2 17-9-4-4-9 0-6 5-12-2-4-8 2-14M300 359l-3-3v-16h7v-6l-8-1v-8h-7v8l-5 1v6h5v16q0 6 5 9 6 3 11-2 0-4-5-4M297 244v-16h7v-6l-7-1-1-7h-7v7l-5 1v6h5v17q0 6 5 8 6 3 12-1l-3-5q-5 1-6-3M289 284v16q0 6 5 9 6 3 11-2l-2-4-1 1q-4-1-5-4l-1-16h8v-6l-8-1v-8h-7v8l-5 1v6zM211 284l2-6q-8-3-12 2l-8-3v32h6l1-1v-14q-1-12 11-10M312 278h7v31h-7zM237 334h7v31h-7zM312 334h7v31h-7z"/><path fill="#d7cfc5" d="m246 333-5 4q-4-1-4-4t4-5l5 3zm76-1-6 4q-3-1-5-3 0-5 5-5zm-1-64-5 5-5-4 4-4q3-1 6 3"/></svg>