<svg width="243" height="398" viewBox="0 0 243 398" fill="none" xmlns="http://www.w3.org/2000/svg">
	<path d="M117.359 0.962298C120.471 0.973004 123.582 0.887365 126.682 0.983713C132.171 1.1657 136.635 2.38612 136.961 8.68086C137.159 12.4277 139.898 14.451 143.942 14.5581C156.749 14.9007 169.568 15.2218 182.388 15.3717C187.539 15.4359 190.254 12.5455 190.569 8.01712C190.942 2.81433 193.89 0.930184 199.309 1.04794C208.049 1.24064 216.79 1.08006 225.53 1.18712C238.314 1.33699 244.258 7.62103 241.764 19.0329C235.785 46.46 164.452 362.482 159.651 383.389C157.274 393.784 147.356 399.169 133.978 397.467C93.6086 392.328 53.2514 387.125 12.8942 381.901C2.26586 380.531 -1.28856 375.906 0.97228 365.865C3.40793 355.041 79.2628 31.5582 79.7755 29.1066C83.5164 10.8969 92.7463 -0.85761 117.359 0.962298Z" fill="black"/>
</svg>
