<?xml version="1.0" encoding="utf-8"?>
<!-- Generator: Adobe Illustrator 25.0.0, SVG Export Plug-In . SVG Version: 6.00 Build 0)  -->
<svg version="1.1" id="Layer_1" xmlns="http://www.w3.org/2000/svg" xmlns:xlink="http://www.w3.org/1999/xlink" x="0px" y="0px"
	 viewBox="0 0 648 729" style="enable-background:new 0 0 648 729;" xml:space="preserve">
<style type="text/css">
	.st0{fill:#FFFFFF;}
</style>
<g id="Layer_2_1_">
	<path class="st0" d="M227.3,69.3c21.5-60.2,89.3-57.4,89.3-57.4s223-6,253.3-6.4C600.2,5.1,615.4,23,615.4,23l16.8,17.9
		c16.4,17.2,8.8,40.3,8.8,40.3S451.5,598.5,427.2,665.1c-29.5,60.7-90.1,50.7-90.1,50.7s-223-8-253.7-9.6
		c-30.7-1.6-43.1-14.4-43.1-14.4L21.6,675c-26.4-24.3-11.2-51-11.2-51l43.5-114.5L227.3,69.3z"/>
</g>
</svg>
