<svg xmlns="http://www.w3.org/2000/svg" xml:space="preserve" id="Layer_1" x="0" y="0" version="1.1" viewBox="0 0 615 210">
  <style>
    .st0{fill:#202124}
  </style>
  <path d="M72 65h21c21-2 39 13 41 35a39 39 0 0 1-41 41H47a38 38 0 1 1-3-76h28zm0 62h21a24 24 0 1 0 0-48H44c-14 2-23 14-21 28s14 22 28 20h21zm459-31h73l-3 4-7 7v3h-63c1 5 3 10 7 14 5 3 12 5 18 4h52l-7 13h-52c-18-1-32-14-35-31-4-21 9-41 30-45h64-4l-3 10c0 2-2 4-4 4h-42c-10-1-20 4-24 14v3zm-306 45h-21l-42-38h42a14 14 0 0 0 0-24h-49v59l-3 4h-11l-3-4V65h66a28 28 0 0 1 4 52h-11l14 10 17 14h-3zm118 0h-21l-3-10c0-2-2-3-4-3h-38l-7-11-3-3h41l-21-32h-3l-35 56c0 2-1 4-3 4h-14v-4l45-70a10 10 0 1 1 21 0l42 70 3 3z" class="st0"/>
  <path d="m427 127-7 14h-49a38 38 0 1 1-3-76h59l-4 3-3 7c0 2-2 4-4 4h-42c-13 0-24 11-24 24 0 12 9 23 21 25h56zm7-62h14v63h69l-7 13h-69c-4 0-7-3-7-7V65z" class="st0"/>
</svg>
