<svg xmlns="http://www.w3.org/2000/svg" xml:space="preserve" id="Layer_1" x="0" y="0" version="1.1" viewBox="0 0 615 210">
  <style>
    .st0{fill:#202124}
  </style>
  <path d="M107 34c-2-4-7-2-10-5 0-4-7-3-6-6 5-8 15-1 22-2 1-1 5 1 5 1 4-1 1 5 0 5 4-1 3 39-1 28-5 7 10 15 4 18-3 2 3 7 0 11-6-1-5-10-9-1-4 5-6-4-8-7-10 27-5-4-17 8-3 1-1-5-1-7 0-6 26-28 14-36 4-2 13 3 7-7zm-9-7c2-5 12 2 15-2-6 3-21-7-15 2z" class="st0"/>
  <path d="M149 42c10-10 13 0 6 8-7-1-13-6-15 4-4 5-6 9 1 12-19 12-17-22-5-29 14-14 59-26 25 1 1-13-18 7-12 4zm-91-1c-2-5-15-12-13-2C9 9 59 25 72 39c11 8 11 38-7 28 10-3 3-14-1-18s-9 3-13 0c-13-24 10-4 7-8z" class="st0"/>
  <path d="M143 65c-2 1-5-1-5-3-1-2 0-4 2-5 3-2 0-6 5-7 4-2 6 3 10 3 17 8 6 40-12 45-32 17-39-2-3-8 20-7 7-20 21-26 0-3-5-4-5-7 0-2 0-3-2-2-3 1-5-5-8-3-3 1-1 5-2 7-5 1-3 3-1 6zM49 180c-6 1-11 4-15 9-3-1-2-5-2-7 2-7 12-5 17-7-5-2-11-1-16 0-2 4-2-8 7-7 5 1 14 5 18 0 1-4 12-20 15-17 2 2 4-2 7-1-1 2-24 24-15 25 1-1 3 0 4 1l1 3c0 2-3 2-1 4 0 1-4 1-5-1-1-3-6-3-7-2-1 3-9 12-7 14-5 1-11-7-6-9 2 0 8-7 5-5zM63 65c2-3 3-5 0-6-2-2 0-6-3-7s-4 4-8 3c-2-1-3 0-3 2 1 3-4 4-4 7 1 4 9 1 7 7-1 16 17 22 30 22 5 0 4 6 6 9 1 6-11 4-13 0-22 0-46-35-24-50 4 1 5-4 10-2 4 1 2 6 4 7 2 2 2 4 1 6l-3 2z" class="st0"/>
  <path d="M87 154c-7-1-6-11-11-11-2 0-10 2-9-1 11-15 24-59 28-11-3 5-9 7-7 15 2 5-4-2-1 8zm52-11c-21-1-8 3-21 11-1-2 3-6-1-6-3-4 2-11-7-15-1-5-2-23 6-24 15 5 10 26 23 34zM43 99c-1 14-9 31-23 35-3-13 7-36 23-35zm121-1c12-5 31 35 20 35-13-7-21-20-20-35zm-14 9c17 5 13 26 9 41a39 39 0 0 1-9-41zm-93 0c5 14 0 30-10 41-5-10-3-22-3-34 2-4 9-3 13-7zm-2-38c5 4 5 4 7-1 8 2 5 11 14 12 8 1 8 1 9 9-10 5-35-4-30-20zm96 0c9 18-42 32-25 12 4 0 12-2 12-8 9-12 4 4 13-4zM90 4c8 3 8 3 13-2 7 1 6 8 16 2-5 4-4 14-8 15-17-3-15 3-21-14V4zm80 81c6-8 35 7 27 12-14 2-21-1-27-13v1zM37 84C29 96 23 99 8 97c-7-4 18-20 29-13zm133-15c8-7 21-4 29 0-3 6-11 6-17 7-5-2-7-6-12-7zM37 69c-12 6-16 10-29 2-4-6 25-8 29-2zm70-33c0 6-6 1-10 2-18 4-18 3-2-4-6-3-16 4-11-6 2-3 7-3 9 0 3 5 12 4 14 8zm-62 8c-13-5-9 3-12 0-23-22 5-17 12 0zm116 0c8-17 34-22 13 0-4 3 0-5-13 0zm15 9c24-4 24 7 0 11 10-13-5-7 0-11z" class="st0"/>
  <path d="M6 103c9 1 16-3 23-6 12 3-19 21-23 6zm43-10c14 3 8 13-2 16-7 0 0-13 2-16zm108 0c1 3 10 18 1 16-10-4-14-14-1-16zM33 53c-8 4-9 3-4 11-26-5-20-16 4-11zm167 50c-5 15-36-5-23-6 7 3 14 7 23 6z" class="st0"/>
  <path d="M49 93c-15 7-23 3-7-10 4 0 5 7 7 10zm108 0c4-12 8-12 15-1 4 10-12 1-15 1zm-96 7c13 0 11 8 3 15-4 2-7-14-3-15zm86 5c-2 24-16-2-11-3s12-5 11 3zM39 81c-21 1-5-16 3-8 2 3 2 10-3 8zm129 1-5-1c-6-21 32-1 5 1zM40 69c-13-7-15-17 2-12 3 3-4 7-2 12zm126 0c1-5-4-9-2-12 17-5 16 5 2 12zm-29 55c-6-6-14-14-4-21 1 8 6 12 4 21zm-63-21c10 5-6 30-6 14 2-4 5-8 6-14zm99-50c-12-1 13-11 15-14 0 9-9 11-15 14zM33 53c-7-3-14-5-16-14 3 2 28 13 16 14zm131 63c6 6 7 15 15 18-9 4-16-5-15-18zM27 134c9-3 9-12 15-17 2 11-5 20-15 17z" class="st0"/>
  <path d="M50 50c-5 0-4 7-6 6-13-10-5-16 6-6zm106 0c11-10 19-4 7 6-3 1-2-6-7-6zm291 119-37 5-83 9-83 10h-3c-2 1-2 0-2-2v-40c0-3 1-3 3-4l63-7 97-11 73-9c2 0 2 1 2 3v39c0 3-1 5-4 5l-25 2h-1z" class="st0"/>
  <path d="m447 169 26-3c3 0 4-1 4-4v-18l126-15c3 0 3 0 3 3v40c0 2 0 3-3 3l-101 12-51 6c-3 0-4 0-4-4v-20zM258 98c-24 4-29-30-7-36 6-1 17-3 20 3 1 3-1 7-4 4-15-9-24 7-17 20 6 7 16 5 13-6-2-5 14-4 12-2-7 13 6 17-17 17zm180-17c1-4-3-14 3-16 11 0 29-3 31 12 3 20-18 22-33 20-3-3 0-11-1-16zm9 0c1 6-3 14 6 12 5 0 9-3 9-8 5-18-19-23-15-4zm71 0c1-4-2-13 2-16 8 1 22-4 24 8-1 16-15 4 4 23-2 5-11 2-13-2-4-2-4-9-7-10-3 3-1 7-1 10 0 4-3 3-5 3-8 1-3-11-4-16zm11-12c-2 0-3 0-2 4-4 16 19-1 2-4z" class="st0"/>
  <path d="M301 65c25-1 22 35-3 33-24 1-21-36 3-33zm8 18c0-7-3-15-11-14-21 7 7 42 11 14zm101 15c-25 1-21-36 2-33 25-2 22 35-2 33zm-8-18c-1 10 12 19 17 8 8-15-16-28-17-7v-1zm186 18c-14 3-15-8-23-16-1 5 4 15-2 15-3 0-7 2-7-2 3-9-4-25 3-30 3 0 7-1 7 4-2 27 7-10 20-3-16 15-9 16 2 32zM273 22c-17 34-12 35-28 0-3 7-1 16-2 24-5 15-2-22-2-25 2-3-3-5-2-7 3-1 6 0 8 2 19 45 9 15 29-2 3-2 4 39 0 35-6-5 3-23-4-27h1z" class="st0"/>
  <path d="M360 81c2-4-2-14 3-16 8 0 23-3 24 9 2 14-15 8-18 14 1 6 0 12-7 10-3-4 0-12-2-17zm9-6c-1 8 9 8 9 0s-10-8-9 0zm107 23c6-8 11-41 22-31 1 7 15 27 10 31-14 2-5-12-21-8-4 4-3 9-11 7v1zm12-13c8 0 8 0 6-7-2-8-4 3-6 7zM335 98c-10 2-12-9-6-7 4 2 11 4 13-1 0-6-31-11-9-24h13c5 0 5 8 0 5-12-6-17 5-3 7 15 7 5 22-8 20zm224-55c5-8 5-21 11-26 2 2-12 45-14 29-10-35-6-14-17 3-3 2-18-44-8-30 8 24 8 30 16 2 1-2-4-3 0-4 9 0 7 19 12 26zm48-10c1 22-34 23-33 0 0-21 33-22 33 0zm-5 1c0-21-27-18-23 2a12 12 0 0 0 23-2zM310 24c1 44-4 24-3-4-4-14 20 18 23 22 1-8-3-20 2-25 2 0 2 2 2 3 1 45 1 31-24 4zm136 9c2-5-3-15 3-16 6 0 16-2 17 6 2 15-15 8 6 26-10 6-11-16-20-13-4 1-1 8-1 11-6 10-5-10-5-14zm5-7c-1 20 25-5 3-7-5 1-3 5-4 7h1zm-34 7c1-4-3-15 3-16 5 1 13-2 17 1-2 4-9 1-13 2-3 0-3 1-3 3-2 10 4 7 12 8 8 3-7 3-10 3-2 0-2 0-2 2-2 13 4 10 15 10 5 6-14 2-17 3-5-2-1-11-2-16zm-50 17c-2 0-9 0-7-5 2-2 8 4 12 2 10-5 0-12-6-14-13-7 0-20 10-16 1 0 3 1 3 3v1c-2 2-7-3-11-1-8 3-1 10 5 11 13 6 8 20-6 19zm120-34c6-1 9 6 5 5-2-1-5-2-7-1-12 3 0 11 6 13 13 9-4 21-14 16-10-10 13 5 14-7 1-5-5-6-9-9-12-4-6-17 5-17zm118 65c-2 7 4 19-7 16-2 0-2 0-2-2V67c11-9 9 7 9 14zm-96-46c0-24-1-10-9-17-1-2 23-2 22 0 0 2-1 2-2 2-13-1-5 17-7 25 0 2 1 4-2 4-5-1-1-10-2-14zm-114 0c0-20 3-11-9-16 0-3 31-3 20 1-13-3-4 18-7 27 0 1 0 2-2 2-4-1 0-10-2-14zm-100-2c-2 5 2 15-3 16-4-6 0-21-1-30 5-9 4 11 4 14zm55 0c-2 5 2 14-2 16-5-6-1-21-2-30 5-9 4 11 4 14zM8 76c5 3 11 1 17 2 6 5-19 7-17-2zm140 60c-8 0-13-23-5-16l5 16zm50-60c2 9-25 6-16 1 6 0 11 2 16-1zM58 136c2-5 4-10 4-16 8-9 4 15-4 16zm94-76c5-2 10 6 2 5-4-1-4 5-8 5-4-14 8 0 6-10zm-98 1c-2 7 10-3 5 8-3 2-4-5-7-4-9 1-2-8 2-4z" class="st0"/>
  <path d="M147 62h-1c-1 2-4 0-3-2 5 1 3 1 3-4s13 5 1 7v-1zm-93-1c0-3 2-7 5-7 3 1 1 3 1 5 1 5-4 2-6 2zm22 84c3 0 2 5-1 5-2 0-1-5 1-5zm80 35c5 1 11 5 14 9 4-1 2-4 2-7-1-7-11-4-17-7 5-2 11-1 16 0 2 4 3-8-6-7-6 1-14 5-19 0-1-4-12-20-14-17-3 2-5-2-7-1 0 2 24 24 15 26-2-1-4-1-5 1v2c0 2 3 2 1 5l4-1c1-4 7-4 7-3 1 3 9 12 8 15 4 0 11-7 5-10-2 0-7-6-4-5zm-27-35c-3 0-2 5 1 5 2 0 1-5-1-5z" class="st0"/>
  <path d="M60 61c2-2 5 1 2 2s0-2-2-2zm67 122c7-4 3-19-2-13 0 8-12 5-14-2 9 2 12-9 6-7-2 1-4 0-6-2-3-5-3-7 3-6-13-19-6-41 5-59 4-8-1-7-4-12-2 3-3 6-5 6-8-4-3-7-11 1h-4c-5-11-10-2-9 3 10 19 17 42 5 61 8-3 5 3 1 8l-5 2c-8 0 1 10 7 6-1 6-15 11-13 2 0-2 0-2-2-2-4 1-7 6-5 10 0 2 1 3 3 5-15 15 15 20 21 6-2 26 11 21 10 1 7 13 35 6 19-8zm-49 2c4-1 9 0 13-2-2 4-13 10-13 1v1zm35-2c3-1 7 2 11 1 7 2-6 9-11-2v1z" class="st0"/>
</svg>
