<svg xmlns="http://www.w3.org/2000/svg" xml:space="preserve" viewBox="0 0 615 210">
  <path fill="#202124" d="M436 170h-17c-2 0-4-3-4-5l1-2c2-5 2-10 0-15l-3-10c-1-3-1-3-4-3h-24l-3 2-5 21c-2 5-6 10-11 12h-30c-6 0-13-3-17-9l-12-22-8-13v-1l-1 1v28l1 9 1 4c0 2-1 3-3 3h-30c-2 0-4-1-4-3v-1l1-4 2-13V69l-3-15c-2-3 0-5 5-6h28c4 0 6 3 4 7l-2 10v33l1-1 20-29 2-6-1-6-1-3c-1-2 1-4 3-5h26c4 0 6 4 4 7l-9 13-21 30v4l32 54 1 1 1-1 4-11 4-15 5-15 5-17 5-16 4-14c2-4 2-9 0-12-3-4 0-7 5-7h25c5 0 6 1 7 5l6 22 6 20 7 19 5 17a163 163 0 0 0 12 33c1 1 0 4-1 4l-2 1h-17zm-38-54h4c4 0 4 0 3-5l-6-22-1-1-1 1-8 25 1 1 8 1zM36 36h10l6 1 5 4 5 15 5 17 6 19 5 18 1 1 1-1 4-12 4-17 4-13 3-14 4-13c0-3 3-5 5-5h30c2 0 3 2 3 4l-1 1c-4 9-3 17-3 26v8l2 28 4 24c3 13 8 25 14 37l2 4c0 4-2 6-7 6-10 1-20-4-27-12-5-6-9-13-11-21l-5-19-2-19v-2l-1-1-1 1-2 9-4 14-4 13-3 15-3 10-1 5c-1 3-4 4-7 3-7-3-13-8-16-15-4-7-6-15-8-22l-5-13-7-21-1-2-1-2-1 2-1 12-1 16-3 22c-1 6 1 12 3 17 2 2 1 4-1 5l-3 1H13c-5 0-7-3-5-7l5-18 2-18 2-18 2-19 1-9 2-19c1-6 0-13-3-19-1-4 1-7 6-7h11zm114 72c0-16 5-31 15-43 6-8 13-14 22-17 4-2 8-2 12-2 4-1 8 0 13 1l14 5c5 2 10 6 13 11 5 7 9 15 11 24a74 74 0 0 1-10 64 49 49 0 0 1-50 21c-7-1-13-4-18-8-9-8-15-17-18-28-3-9-5-18-4-28zm34-3c0 9 1 17 3 25 1 6 4 11 7 16a10 10 0 0 0 15 3l5-7c3-6 5-12 5-19v-23c-1-7-2-13-5-20-1-4-4-7-7-10-1-2-4-3-7-3-2 0-5 1-7 4-5 5-8 12-9 19l-1 15h1zm382-57h29c5 0 6 2 6 7v12l-1 3c-1 2-3 3-5 2l-3-1-5-2h-18c-2 0-2 0-2 3v22c0 2 0 2 2 2h21c3 0 5 2 5 5v13c0 2-2 4-4 4h-2c-2-2-6-2-9-2h-11c-2 0-3 0-3 2v29c0 2 1 3 3 3 11 2 22 1 31-3l2-1c2-1 5 0 5 3l-1 7-2 11-4 4h-64c-4 0-6-2-4-6s3-9 3-13V67l-3-12c-2-4 0-7 4-7h30zm-99 61V65c0-4 0-4-3-4-6 0-11 1-17 4h-5c-1 0-2-1-2-3V43c0-3 3-5 5-5h70c3 0 6 2 6 5 3 6 4 13 3 19 0 2-2 3-4 3h-1c-5-3-11-4-17-3h-2v84l3 18c2 3 0 6-4 6h-31c-4 0-6-3-4-7 3-5 3-11 3-17v-38 1z"/>
</svg>
