<svg xmlns="http://www.w3.org/2000/svg" width="1000" height="1000"><g clip-path="url(#a)"><path fill="#fec500" d="M0 0h1000v1000H0z"/><svg xmlns="http://www.w3.org/2000/svg" xml:space="preserve" width="1200" height="1200" baseProfile="tiny" overflow="visible" transform="scale(.83333)" version="1.2" viewBox="0 0 1200 1200"><circle cx="599.5" cy="600.5" r="599.5" fill="#fec500"/><path d="M582 1077q-125 1-233-60-87-50-134-137-32-63-28-132 6-88 62-156a305 305 0 0 1 234-116q41 0 74 22c8 7 19 6 29 6q20 2 35-12 9-6 20-9 36-12 74-5a317 317 0 0 1 256 234q19 94-28 178-46 77-123 123a450 450 0 0 1-238 64m-80-555q-31 1-52 7-80 23-135 84-39 43-50 100-2 12 10 17c13 5 27-1 31-15q10-32 29-60 21-30 53-50c40-26 83-44 132-38q13 1 21-8c9-9 8-29-9-33zm380-383c20 1 37 0 54 5l18 8q9 7 10 19 0 17-8 32-19 48-51 89a400 400 0 0 1-259 146q-8 2-14-1-23-7-20-31 6-33 23-61a229 229 0 0 1 134-105l18-9q12-12 0-24-10-8-23-5c-51 17-97 42-133 83q-28 30-45 68-1 5-5 6-5-1-8-6c-5-12-12-23-13-36q-1-11 5-21a346 346 0 0 1 140-117 471 471 0 0 1 177-40M304 282q-1-17 14-32 14-10 30-8 33 1 63 19 29 17 54 41a491 491 0 0 1 99 130q3 9 0 18-4 12-16 7-12-6-19-17-23-30-52-54-33-27-73-38-22-6-44-4-28 5-45-24-9-15-11-38"/></svg></g><defs><clipPath id="a"><rect width="1000" height="1000" rx="500" ry="500"/></clipPath></defs></svg>