<?xml version="1.0" encoding="utf-8"?>
<!-- Generator: Adobe Illustrator 25.0.0, SVG Export Plug-In . SVG Version: 6.00 Build 0)  -->
<svg version="1.1" id="Layer_2" xmlns="http://www.w3.org/2000/svg" xmlns:xlink="http://www.w3.org/1999/xlink" x="0px" y="0px"
	 viewBox="0 0 525 325" style="enable-background:new 0 0 525 325;" xml:space="preserve">
<style type="text/css">
	.st0{fill:#FFFFFF;}
</style>
<path class="st0" d="M520.57,281.46c0,0-9.45,13.65-15.15,19.65c0,0-12.45,3.35-22.8,9.8c0,0-5.95,3.85-8.25,5.4
	c0,0-4.3,1.3-6.6-3.45l-9.6-14.65c0,0-13.6,7.15-22.3,15.65c0,0-7.08,6.56-11.17,11.14H51.37c0,0-3.07-7.12-10.6-14.06
	c0,0-17-13.4-13.87-25.2c0,0,4.14-10.4,9.67-14.66c0,0-1.47-11.4,3.67-14.74c0,0,4.8-1.4,6.93-5.4l1.4-37c0,0,2.27-4.13,3.8-5.4
	l-3.87-2.33l-2.8-2.67l-13.73-6.13l-10.6-7.27L7.3,177.01c0,0,0.74-5.8,5-6.6c0,0,4.14-4.87,6.4-5.6c0,0,1.6,0.33,3.87-0.73
	l2.2,0.93l11.47,11.47l4.61,4.89l14.52,18.24l1.66-2.12l-16.33-18.88l-15.87-22.13c0,0-9.67-5.54-13.4-16.2
	c0,0-3.87-8.54-7.27-13.07c0,0-1.8-2.53-1.47-6.2c0,0,6,6.53,12.2,11.47c0,0,9.94,6.46,15.4,19.66c0,0,9.8,10,21.54,24.87l9.2,12.4
	c0,0,0.66,0.87,2.53-1.13c0,0-9.67-15.67-12.87-22.54c0,0-7.26-14.4-14.53-24.73c0,0-8.67-10.6-11.47-28.67
	c0,0,8.07,11.74,12.67,17.4c0,0,3.27,5.07,4.53,9.6l12.74,19.34c0,0,2.53,2.73,3.26,7.06l8.94,16.8l1.26,2.07l1.4,0.53l0.47-0.86
	l-1-2c0,0-3.93-7.94-5.47-13.07c0,0-5.86-9.53-6.66-14.4c0,0-6.34-9.53-8.07-16.27c0,0-7.93-9-8.87-26.2c0,0,1.87-1.66,9.4-1.33
	c0,0,3.94,1.11,6.8-0.04c0,0,4,16.51,6.47,19.51l9.27,34.26l3.13,4.8c0,0,5.2,11.27,6.8,18.87c0,0,0.47,1.27,6.07,1.07
	c0,0,4.33,3.86,6.8,7.13l6.73-4c0,0,8.67-4.87,14-7c0,0,5.4-4.8,8.47-9c0,0,5.46-7.87,9.73-11.6c0,0-5-14.13-5.33-18.47
	c0,0-3.47,2.34-6.67-0.93c0,0-1.53-0.8-1.67-7c0,0-3.06-4.6-3.33-10.27c0,0-5.33-8.73-5.07-18.73c0,0,0.07-6.93,1.94-9.2
	c0,0-4.47-0.53-7.6-5.8l3.53-1.27c0,0-4.33-0.4-5.07-4.33l4-0.47c0,0-1.53-4.53,0.2-9.2c0,0-1.8,1.34-3.33,1.27l0.87-2
	c0,0,2.93-3.4,3.53-6.27l3.87-5.33c0,0,2.93-15.53,23.53-21.13c0,0,5.33-0.87,10.17-4.34c0,0-1.37-1.5,0.5-3.06
	c0,0,5.1,3.76,12.53-1.27c0,0,8.27-3.93,13.87-3.53c0,0,6.9,0.06,8.4,7.4c0,0,0.53-1.87,1.86-1.87c0,0,2.27,1.53,2.34,4.2l2.76-3.47
	c0,0,4.44,0.9,6.1,5.47c0,0,4,1.27,5.87,1.07c0,0,4.27-2.47,4.93,2.86c0,0,0.02,1.72-1.08,2.77c0,0,0.5,1.5-0.7,2.5
	c0,0,2.4,2,6.6-0.9c0,0,0.8,3.2-3.75,4.7c0,0,5.65,8.2,5.05,20c0,0,1.35,0.45,1.05,3.25c0,0,5.9,1.5,10.25-4.7c0,0,0.4,8.4-9.15,8.9
	c0,0,0.35,2.1,2.5,5.4c0,0,0.6,0.8,0.6,2.2l-1.15-0.15c0,0,0.15,2.55,1.35,5.4c0,0,2.4,9.3-2,13.7c0,0-4.6,6.15-4.3,8.25
	c0,0,0.1,6.7-3.35,11.85c0,0,1.35,17.1-3.95,25.8l0.15,1.7c0,0,4.8,4.55,7.05,7.4l5.7-0.25c0,0,4.95-0.1,5.7,1.6l3.6,0.05
	c0,0,1.4-2.25,6.7-2.4l6.45-1.95c0,0,3.15-5.5,11.95-4.95c0,0,15.1,2.05,19.2,2.15c0,0,4.85-3.05,6.2-3.45c0,0-6.15-16.25-8.65-24.2
	c0,0-6.95,2.35-8.6-9.55c0,0-3.55-13.05-5.85-17.8c0,0-1.3-3.65-0.65-8.15c0,0-0.5-8.35-1-9.65c-0.5-1.3,2.55-4.35,4.55-3.5
	c0,0,0.2-2.95-2.2-2.9c0,0-3.25,0.15-3.15-3.75c0,0-0.15-1.8,2.5-3.9c0,0-4.25-1.6-4.9-5.1c0,0,1.7-2.5,6.4-3.35
	c0,0-9.4-3.4-9.85-10.35c0,0-0.2-2.55,0.75-4.2c0,0,1.5,4.7,8.2,3.7l-1.05-3.9c0,0-6.2-0.7-6.9-5.95c0,0,11.55-6.1,13.85-13.95
	c0,0,2.1-10.4,19.05-18.4c0,0,11.3-7.55,21.05-7.6c0,0,24.45-1.2,35.55,12.65c0,0,10.1-1.05,16.05,6.95c0,0,8.75,4.05,10.25,10.55
	l0.25,0.65l-6.5-0.15c0,0,1.05,1.4,4.2,3.35l2.3,0.15c0,0,4.1,5.45,5.85,12.9c0,0-1.35,1.65-2.7,1.95c0,0,4.2,1.9,5.85,4.2
	c0,0,1.15-1.45,3.2-1c0,0-0.55,7.05-5.4,8.7c0,0,2.3,19.1-2,25.2c0,0,0.75,9.1-2.1,17.95c0,0-0.85,2.3-0.95,5.3c0,0-2.3,5.7-4,6.5
	c0,0,0.6,11.4-1.05,13.45l0.1,7.4c0,0,7.2-4.3,17.6-1.9c0,0,12.45-1.1,14.2,0.95s1.25,7.3,1.25,7.3l4.55,3.85
	c0,0,3.75,2.78,2.35,9.89l0.31,2.84c0,0,1.04,2.27,2.84,1.62c0,0,4.3-1.8,7.2-1.15c0,0,3.85,0.45,2.55,8.75h34.05
	c0,0,6.45,7.5,10.15,9.65c0,0,0.1,11,0,24.05c0,0,7.4,3.65,10.95,6.1c0,0,7.9,1.1,10.7,9.15c0,0,12.55,5.65,27.05,8.95
	c0,0,7.3,3.5,8.45,12.4c0,0,5.25,12.25,6,22.15C519.62,267.01,521.22,274.01,520.57,281.46z"/>
</svg>
