<?xml version="1.0" encoding="utf-8"?>
<!-- Generator: Adobe Illustrator 25.0.0, SVG Export Plug-In . SVG Version: 6.00 Build 0)  -->
<svg version="1.1" id="Layer_2" xmlns="http://www.w3.org/2000/svg" xmlns:xlink="http://www.w3.org/1999/xlink" x="0px" y="0px"
	 viewBox="0 0 525 325" style="enable-background:new 0 0 525 325;" xml:space="preserve">
<style type="text/css">
	.st0{fill:#FFFFFF;}
</style>
<path class="st0" d="M65.57,325c0,0-9.5-2.19-19.5-9.29c0,0-7.15-2.8-10.95-6.65c-0.75-1.8-0.55-6.45,0-10.6s0.75-19.15,0.75-24.4
	c0,0,0-1.2,4.15-7.25s9.35-19,11.8-24.1c2.45-5.1,11.45-16.25,12.75-18.6c1.3-2.35,2.55-9,4.55-14.8s3.2-5.25,3.4-18.55
	c0.2-13.3,0-19.5,0-19.5s-6.45-5.4-13.1-0.3c0,0-7.25,8.4-12.5,6.6c0,0-1,1.15-0.55-7.2s1.15-24.05,1.15-24.05h-4.95l5.35-18.05h6.7
	c0,0,15.5-11.65,31.1-31.5c0,0,17.05-20.1,20.35-27.8c0,0,2.85-4.8,3.2-6.6h-5.3c0,0-1.95,0.15-1.4-11.7l0.3-0.6h44.3
	c0,0,1.45-5.1,6-8.55c0,0-3.15,0.75-2.9-4.5l0.3-3.6h4c0,0-0.45-2.7,2.2-4.05c0,0,2.6-1.65,3.6-1.8c0,0-2.2-0.75-2.65-2.65
	c0,0,14.45-3.15,21.5-11.3c0,0,13.6-12.2,36.55-10.4s31.25,13.8,42.35,25.25c0,0,4.4-0.55,5.25-1.3c0,0-0.9-4.2-0.3-6.55
	c0,0,4.5,0.45,5.7-2.1c0,0-1.8-2.15-1.05-5.45l11.05-0.65c0,0-2.55-0.55-2.3-2.7c0,0,7.7,0,9.65-1.25l-4.7-0.35
	c0,0-0.35-2.65,8.5-3.2c0,0,4.2-0.05,6.3,0.8l-0.25-1.55c0,0,4.55,0.3,8.35,1.85l-1.45-2.4c0,0,7.6,1,10.3,1.85
	c0,0,3.55-2.35,14.2,1.75c0,0,4.65,1.75-0.25-3.4c0,0-0.26-0.7,2.24-0.5s7.21,1.2,8.51,1.05c1.3-0.15,0.75-1.75,0.75-1.75
	s3.6-0.75,10.6,2.85c1.85,0.85,3.65-0.75,4.45-3.4c0,0,4.95,0.1,11.5,8.85c0,0,6.45,1.45,9.4,11.9c0,0,1.05,2.5-1.7,4.5l0.45,0.9
	l4-2.4c0,0,2.75-2.05,2.85,1.8l0.3,6.6c0,0-1.3,3.15-3.55,3.35c0,0,5.25,2.8,6.2,11h54.8c0,0,3.1,1.6,2.75,9.3
	c0.03,3.4-2.55,6.7-6.85,7.7c0,0,9.3,20.9,28.85,43.1c0,0,9.1,11.5,23.45,19.65l3.95,0.4c0,0,2.5-0.95,3.25,10.2
	c0,0,0.5,4.95-1.1,8.25l-2.95,0.2v27.3c0,0-2.55,6.5-8.05,6.4c0,0-3.8,0.25-8-5.3c-4.2-5.55-9.1-8.25-12.7-2.9
	c0,0-4.28,70.35-15.08,93.02c0,0-5.07,34.67-32.13,53.2l-7.87,6.53L65.57,325z"/>
</svg>
