<?xml version="1.0" encoding="utf-8"?>
<!-- Generator: Adobe Illustrator 25.0.0, SVG Export Plug-In . SVG Version: 6.00 Build 0)  -->
<svg version="1.1" id="Layer_2" xmlns="http://www.w3.org/2000/svg" xmlns:xlink="http://www.w3.org/1999/xlink" x="0px" y="0px"
	 viewBox="0 0 525 325" style="enable-background:new 0 0 525 325;" xml:space="preserve">
<style type="text/css">
	.st0{fill:#FFFFFF;}
	.st1{fill:none;stroke:#ED1C24;stroke-width:0.25;stroke-miterlimit:10;}
</style>
<path class="st0" d="M522.3,286.28v-6.94c0.07-11.06-1.93-20.86-1.93-20.86c-0.4-11-6.4-17.94-6.4-17.94l-1.8-4.66l-14.73-18.47
	c-5.67-8.67-29-45.73-29-45.73c-1.07-2.54-3.04-3.27-3.04-3.27l-0.03-2.07c0.33-5.26-2.4-8.33-2.4-8.33
	c-4.47-2.47-15.93-10.67-15.93-10.67c-10.67,1.4-27.2-3.13-27.2-3.13c-0.54-3.27-4.47-3.53-4.47-3.53c-2.8-1.2-8.4-2.8-8.4-2.8
	c-4.73,0.4-12,1.33-12,1.33c-12.73-1.67-16.93-9-16.93-9c-1.67-4-2.54-4.27-2.54-4.27l-2.73-0.53l-0.07-0.8
	c4.74-3.33,4.14-14.4,4.14-14.4c3.13-4.2,5.26-8.33,5.26-8.33c0.94-4.07,2.54-3.34,2.54-3.34l-0.2,3.34c6-4.27,6.26-14.4,6.26-14.4
	c1-9.2-5.26-9.34-5.26-9.34c1.13-0.33,2.73-2.4,2.73-2.4c0.67-1.8,4.93-3.66,4.93-3.66c1.4-4.67-2.8-6.47-2.8-6.47l-0.73,1.8
	l-1.07-0.27c-1.4-10.46-8.8-13.6-8.8-13.6v-0.66c-1.66-30.27-23.46-37.94-23.46-37.94c-8.47-2.2-19.6,2.6-19.6,2.6
	c-1.47-4.2-8.67-7.06-8.67-7.06c-6.93-0.54-15.33,4.13-15.33,4.13c-8.47,3.8-26,12.4-26,12.4c-19.34,11.8-15.8,19.07-15.8,19.07
	c2.06-1.16,6.63-4.64,6.92-4.86c-2.59,2.94-4.46,10.86-4.46,10.86c-1,2.73-8.46,11.26-8.46,11.26c-6.67,9.34-6.2,13.27-6.2,13.27
	c1.33,9.4,7.2,10.6,7.2,10.6c-0.87-3-0.6-5.53-0.6-5.53c0.26-4.54,6.06-3.14,6.06-3.14l0.67,8.67c0.8,11.53,7.47,15.27,7.47,15.27
	l0.2,6.06c-0.14,3.94-0.8,10-0.8,10c-0.34,3.8,1.26,5.6,1.26,5.6c5.94,7.74,7.54,18.54,7.54,18.54c-10.2,0.33-14.47,8.66-14.47,8.66
	l-1.67,0.34c0.34-6.6-1.2-13.07-1.2-13.07c0.94-5.47,0.47-14.13,0.47-14.13c-0.27-9.94-2.13-13.67-5.73-14.27
	c-3.6-0.6-4.14,5.13-4.14,5.13s0.14,8.2-1.26,13.87c-1.4,5.67-1.07,18.27-1.07,18.27c-2.8-2.8-5.6-8.54-5.6-8.54l-8.13-18.26
	c-4.2-5.07-8-1.87-8-1.87c-2.07,7.4,3.2,20.4,3.2,20.4l7.8,21.33c-8.74-3.66-14.6-12.53-14.6-12.53c-3.27-6.8-8-6.4-8-6.4
	c-4.74,0.07-2.4,8.33-2.4,8.33c4.25,10,15.82,19.36,17.25,20.49c-2.33-1.58-16.19-6.29-16.19-6.29c-1.46-5-6.8-13.53-6.8-13.53
	c2.94-3.93,4.47-15.8,4.47-15.8l0.27,2.8c8.26-1.33,8.93-12.6,8.93-12.6c1.27-5.67,6.27-13.6,6.27-13.6
	c3.53-7.13,1.4-16.53,1.4-16.53l-1.74-2.54c2.87-2.86,0.74-6.6,0.74-6.6c2.4-0.53,1.26-3.2,1.26-3.2c2.47-1.26,1.8-4.8,1.8-4.8
	c2.74-3.66-0.2-6.06-0.2-6.06c1.87,0,3.94-1.8,3.94-1.8c0.2-10.07-0.94-15.87-0.94-15.87c-0.66-13.6-3.93-9.73-3.93-9.73
	c1.4-7.6-4.47-11.47-4.47-11.47c-3.26-5.8-8.2-7.6-8.2-7.6c-0.13-3.2-4.13-5.07-4.13-5.07c-1.8-3.33-8.87-3-8.87-3
	c-1.13-2.73-6.33-4.66-6.33-4.66c-6.8-4-12.93-3.2-12.93-3.2c-1.74-3.87-12.4-3.07-12.4-3.07c-12.2,0-16.54,2.07-16.54,2.07
	c-4-0.4-7.26,1.33-7.26,1.33c-2.27,2.4-7.74,4.27-7.74,4.27c-2.8-0.07-3.86,3-3.86,3c-2.07,0.13-4.54,2.86-4.54,2.86
	c-4.13-0.2-4.73,5.54-4.73,5.54c0-0.8-1.73-1.14-1.73-1.14l-0.2,3.67l-2.07,0.73l0.13,5.2c-4.4,1.87-4.13,8.34-4.13,8.34
	c-1.73,2.13-2.13,6.26-2.13,6.26c-2.07,2.54-3.94,10.14-3.94,10.14h1.2c-1.73,1.4-1.86,5.2-1.86,5.2c1.13-0.07,1.8-0.6,1.8-0.6
	c-1,2.46-0.87,5.66-0.87,5.66c-1.2,11.34,2.47,13.67,2.47,13.67c-6.34,1.87-5.67,5.2-5.67,5.2c-0.87,1.53-1.73,4.4-1.13,6.53
	c0.6,2.14,1.13,6.14,1.13,6.14c0.93,10.6,4.33,20.13,4.33,20.13c1.74,10.4,5.27,9.2,5.27,9.2c2.13-0.07,3.47-1.33,3.47-1.33
	c-0.34,3.53,0.4,9.8,0.4,9.8c-3.07,2.6-11.6,13.06-11.6,13.06c-2.4,0-12.8,0.87-12.8,0.87c-24.27,2.07-33.67,12-42.47,12.2
	c-8.8,0.2-20.33-1.13-20.33-1.13c-11.47,8.4-23.6,26.66-24.47,28.73c-1.8,16.4-4.47,20.27-7.07,29c-6.73,6.8-6.2,15.47-6.2,15.47
	c-5.8,15-7.06,35.93-7.06,35.93c0.26,7.87,5.53,28.33,5.53,28.33c-2.87,1.07-5.87,5.4-5.87,5.4c3.87,2,16.4,1.47,16.4,1.47
	c14.6,2.47,41.67,2.27,41.67,2.27c6,1.06,16.07,8.06,16.07,8.06c2.13,2.07,5.73,1,5.73,1c3.6-1.86,10.87-3.86,10.87-3.86
	c2.66-2.14,6.53-0.34,6.53-0.34c5.33,3.4,18.4,2.94,18.4,2.94c4.27,2.73,11.8,1.66,11.8,1.66c4.73,1,8.53-0.26,8.53-0.26l10.67-0.14
	v2.54c6.13,0.6,10.73-0.54,10.73-0.54c14.14,1.14,48.67,3.6,65.67,3.6s55.8-2.33,55.8-2.33c28.13-0.4,39.73-4.27,39.73-4.27
	c15.07-3.93,23.27-3.13,23.27-3.13c9.1,0,43,5.7,43,5.7c14,1.77,26.8,1.5,26.8,1.5c37.53-10.07,69.87-5.93,69.87-5.93
	c6.13-2.54,40.46-19.94,40.46-19.94C523.77,287.74,522.3,286.28,522.3,286.28z M292.27,165.24c-1.05,1.37-0.9,2.27-0.9,2.27
	l-2.25,0.3c0,0-0.95-3.1-5.05-3.15c0,0-0.4-5.5,0.8-6.65c0,0,0.7-3.55,3.15-3.95c0,0,2.65-0.85,3.6,1.25
	c0.95,2.1,0.85,2.73,2.15,3.96C295.07,160.51,293.32,163.87,292.27,165.24z"/>
<path class="st1" d="M292.27,165.24c-1.05,1.37-0.9,2.27-0.9,2.27l-2.25,0.3c0,0-0.95-3.1-5.05-3.15c0,0-0.4-5.5,0.8-6.65
	c0,0,0.7-3.55,3.15-3.95c0,0,2.65-0.85,3.6,1.25c0.95,2.1,0.85,2.73,2.15,3.96C295.07,160.51,293.32,163.87,292.27,165.24z"/>
<path class="st1" d="M292.27,165.24c-1.05,1.37-0.9,2.27-0.9,2.27l-2.25,0.3c0,0-0.95-3.1-5.05-3.15c0,0-0.4-5.5,0.8-6.65
	c0,0,0.7-3.55,3.15-3.95c0,0,2.65-0.85,3.6,1.25c0.95,2.1,0.85,2.73,2.15,3.96C295.07,160.51,293.32,163.87,292.27,165.24z"/>
</svg>
